<?xml version="1.0" encoding="utf-8"?>
<!-- Generator: Adobe Illustrator 16.0.0, SVG Export Plug-In . SVG Version: 6.00 Build 0)  -->
<!DOCTYPE svg PUBLIC "-//W3C//DTD SVG 1.1//EN" "http://www.w3.org/Graphics/SVG/1.1/DTD/svg11.dtd">
<svg version="1.1" id="Layer_1" xmlns="http://www.w3.org/2000/svg" xmlns:xlink="http://www.w3.org/1999/xlink" x="0px" y="0px"
	 width="261px" height="279px" viewBox="0 0 261 279" style="enable-background:new 0 0 261 279;" xml:space="preserve">
<path d="M125.48,218.278c0,0,6.048,16.8,8.618,18.33c2.568,1.531-1.959-17.834-3.298-25.46"/>
<path d="M152.078,207.767c0,0,7.801,19.524,10.641,21.474c2.838,1.95-3.576-20.349-5.634-29.092"/>
<path d="M174.761,199.107c0,0,3.148,17.575,5.427,19.515c2.275,1.939,1.056-17.91,1.013-25.652"/>
<path d="M98.833,221.498c0,0-4,13.002-2.667,15.002s8-11.999,11-17.333"/>
<path style="fill:#8DD3EC;" d="M91.198,97.376c-7.604-8.303-15.45-18.307-17.62-29.63c-1.027-5.361-0.764-11.385,2.174-16.141
	c2.517-4.074,9.945-9.475,15.036-9.125c14.871,1.021,22.307,24.42,27.942,35.238c1.659,3.185,4.329,7.686,4.136,11.469"/>
<polyline style="fill:#1F130D;" points="207.75,146 255.75,146.5 207.75,154.5 "/>
<path style="fill:#8DD3EC;" d="M97.954,91.02c2.124-6.096,4.38-12.217,6.873-18.174c3.46-8.265,6.889-18.694,13.917-24.647
	c5.159-4.369,16.191-8.248,21.43-2.237c7.561,8.674,0.631,28.953-2.031,38.316c-1.052,3.696-1.797,7.802-4.188,10.931
	C129.621,100.875,97.954,91.02,97.954,91.02z"/>
<path style="fill:#FFDE17;" d="M203.339,124.219c-17.189-33.496-59.868-44.346-94.572-40.094
	c-10.459,1.282-21.778,3.734-31.568,7.716c-14.244,5.793-28.417,13.58-39.107,24.828c-20.286,21.345-16.308,60.295,1.37,81.893
	c20.588,25.156,57.243,27.576,86.86,21.418c30.725-6.389,72.406-21.041,82.6-54.46c2.606-8.546,1.054-21.668-1.254-30.131
	C206.584,131.419,205.124,127.698,203.339,124.219z"/>
<path d="M42.479,156.988c-7.915,0.677-6.397,22.819-2.311,27.63c2.579,3.036,8.938-1.14,8.197-6.936
	c-0.712-5.574-0.199-11.342-1.964-16.754C45.43,157.95,43.952,156.864,42.479,156.988z"/>
<path d="M60.259,179.722c-1.17-4.097-0.82-9.245-0.419-13.11c0.286-2.749,1.925-10.609,5.751-10.504
	c10.981,0.303,8.059,30.833,2.4,30.397C63.532,186.162,61.297,183.356,60.259,179.722z"/>
<g>
	<path style="fill:#1F130D;" d="M132.169,218.765c0.052-1.991,0.009-3.868,0.087-5.002c1.215-17.713,1.268-35.482,2.052-53.215
		c0.771-17.4,1.324-35.557-5.57-51.932c-3.628-8.614-7.961-17.14-12.588-25.368c-2.513,0.147-5,0.364-7.445,0.664
		c-3.177,0.39-6.435,0.903-9.704,1.521c2.883,7.857,7.082,20.504,7.513,21.734c9.504,27.14,11.638,55.902,10.51,84.468
		c-0.325,8.226-0.797,16.443-1.164,24.667c-0.022,0.507,0.083,2.937,0.103,5.509c3.5-0.458,6.945-1.039,10.298-1.738
		C128.189,219.671,130.163,219.234,132.169,218.765z"/>
	<path style="fill:#1F130D;" d="M152.6,212.897c5.042-1.746,10.067-3.744,14.944-6.028c1.339-19.163,3.512-53.991,2.222-61.748
		c-1.426-8.574-7.381-42.451-9.805-56.22c-3.858-1.313-7.813-2.392-11.82-3.252c3.517,20.637,9.302,40.859,8.375,61.992
		c-0.626,14.258-1.776,28.511-2.592,42.761C153.814,192.319,153.91,212.443,152.6,212.897z"/>
	<path style="fill:#1F130D;" d="M181.689,199.04c3.608-2.366,7.017-4.948,10.147-7.768c4.69-15.286,12.398-42.394,10.812-50.666
		c-1.371-7.145-5.037-19.969-7.698-28.918c-3.174-3.724-6.729-7.054-10.586-10.005c1.478,13.681,4.942,47.355,3.87,52.813
		C187.163,159.949,183.26,187.757,181.689,199.04z"/>
</g>
<path style="fill:#C12037;" d="M51.35,136.588c0,0,20.795,8.056,39.583,5.515c18.788-2.541,50.704-29.167,24.852-36.63
	c-25.853-7.462-30.357-4.909-30.357-4.909"/>
<path style="fill:#EE2641;" d="M32,139.5c0,0,36.564-6,43.032-11S85.5,113.5,88.5,108s-9.5-24.5-13-27s-32.364-4-38.682-2
	S13.5,110.5,15.5,116s10.29,24.928,10.645,23.5S32,139.5,32,139.5z"/>
<path style="fill:#C12037;" d="M31.295,140.053l23.855-2.836c0,0-11.644-18.328-18.333-27.393c-4.428-6,2.485-31.281-0.705-30.271
	c-6.318,2-23.318,31.5-21.318,37s9.256,23.013,10.645,23.5C27.666,140.833,31.295,140.053,31.295,140.053z"/>
<ellipse transform="matrix(0.877 -0.4806 0.4806 0.877 -33.435 27.4142)" style="fill:#A51D32;" cx="36.818" cy="79" rx="4.75" ry="2.575"/>
</svg>
